<svg width="106" height="38" viewBox="0 0 106 38" fill="none" xmlns="http://www.w3.org/2000/svg">
<path d="M22.2 6.04H14.16V1.24H8.88V6.04H0.72V10.32H22.2V6.04ZM11.48 25.48C9.24 25.48 7.52 23.84 7.52 21.12C7.52 18.4 9.24 16.76 11.48 16.76C13.76 16.76 15.52 18.4 15.52 21.12C15.52 23.84 13.76 25.48 11.48 25.48ZM11.48 12.32C6.44 12.32 2.64 16.04 2.64 21.12C2.64 26.2 6.44 29.92 11.48 29.92C16.56 29.92 20.36 26.2 20.36 21.12C20.36 16.04 16.56 12.32 11.48 12.32ZM26.36 0.599998V15.08H21.52V19.36H26.36V37.44H31.64V0.599998H26.36ZM51.7569 8.48H59.3569V4.12H38.7169V8.48H46.3969V10.52C46.3969 16.8 43.3969 23.56 37.2369 26.32L40.2369 30.52C44.5569 28.56 47.5169 24.52 49.1569 19.72C50.7969 24.16 53.7169 27.76 57.9969 29.6L60.8769 25.44C54.7169 22.88 51.7569 16.52 51.7569 10.52V8.48ZM62.7569 0.599998V37.44H68.0369V0.599998H62.7569ZM79.7938 12.32C79.7938 9.28 81.7938 7.4 84.4738 7.4C87.1938 7.4 89.1938 9.28 89.1938 12.32C89.1938 15.4 87.1938 17.28 84.4738 17.28C81.7938 17.28 79.7938 15.4 79.7938 12.32ZM99.8338 9.92V14.68H93.9138C94.1138 13.96 94.1938 13.12 94.1938 12.32C94.1938 11.48 94.0738 10.68 93.9138 9.92H99.8338ZM99.8338 18.88V27.56H105.114V0.599998H99.8338V5.72H91.6338C89.8338 3.88 87.3538 2.8 84.4738 2.8C79.0338 2.8 74.7938 6.84 74.7938 12.32C74.7938 17.84 79.0338 21.88 84.4738 21.88C87.3538 21.88 89.9138 20.76 91.7138 18.88H99.8338ZM86.1138 32.6V24.92H80.8338V36.8H105.954V32.6H86.1138Z" fill="#111111"/>
</svg>
